<svg xmlns="http://www.w3.org/2000/svg" viewBox="0 0 321.13 90.22"><defs><style>.cls-1,.cls-6{fill:#000406;}.cls-1,.cls-2,.cls-3,.cls-4,.cls-5{fill-rule:evenodd;}.cls-2{fill:#162050;}.cls-3{fill:#212c5f;}.cls-4{fill:#a7a6a7;}.cls-5{fill:#172151;}</style></defs><title>Ativo 2</title><g id="Camada_2" data-name="Camada 2"><g id="Camada_1-2" data-name="Camada 1"><polygon class="cls-1" points="5.75 80.89 5.75 90.15 4.56 90.15 4.56 80.89 1.53 80.89 1.53 79.85 8.81 79.85 8.81 80.89 5.75 80.89"/><path class="cls-2" d="M0,6.38H19.49c12.73,0,18,5.17,18,14.08,0,5.57-2.95,11.86-10.51,13v.16c10,.95,13.29,8,13.29,13.68,0,12.34-9.15,16.4-21.4,16.4H0V6.38Zm6.13,5.33h0V31.52H17.19c7.4,0,14-2.07,14-10.42,0-7-4.77-9.39-12.81-9.39Zm0,46.62h14.4C29.52,58.33,34,53.88,34,47c0-7.72-5.8-10.11-14.24-10.11H6.13Z"/><path class="cls-3" d="M69.17,6.38c13.45,0,19.5,6.36,19.5,16.47,0,7.16-3,12.73-9.63,15.91L91.93,63.67H85.25L73.07,40.19a28,28,0,0,1-6.12.56H57.32V63.67H51.19V6.38ZM57.32,11.79h0V35.58H67.9c9.55,0,14.56-4.3,14.56-12.25,0-7.64-4.14-11.54-13.45-11.54Z"/><path class="cls-4" d="M100.69,7.08h18.56A32.22,32.22,0,0,1,130.51,9a24.64,24.64,0,0,1,8.81,5.47,23.71,23.71,0,0,1,5.59,8.77,32.58,32.58,0,0,1,1.94,11.46,32.5,32.5,0,0,1-2,11.58,24.76,24.76,0,0,1-5.63,8.88,24.15,24.15,0,0,1-8.77,5.55,31.91,31.91,0,0,1-11.22,1.91H100.69V7.08Zm30.42,14.23h0q-4-4.56-12.18-4.56H112V52.92h6.9q8.1,0,12.14-4.68t4-13.56Q135.11,25.88,131.11,21.31Z"/><path class="cls-4" d="M159.86,7.08h16.9q10.38,0,16.38,5t6,14a20.16,20.16,0,0,1-1.54,8.09,15.79,15.79,0,0,1-4.48,6,20,20,0,0,1-7.1,3.65,32.59,32.59,0,0,1-9.24,1.23h-5.55V62.6H159.86V7.08Zm24.83,11.85h0q-2.77-2.17-8.17-2.18h-5.31V35.47h5.31q5.4,0,8.17-2.18c1.85-1.45,2.78-3.85,2.78-7.18S186.54,20.39,184.69,18.93Z"/><path class="cls-4" d="M259.57,46.42a26.14,26.14,0,0,1-5.33,9.12,23.77,23.77,0,0,1-8.59,5.91,31.91,31.91,0,0,1-22.77,0,24.14,24.14,0,0,1-8.64-5.91,25.62,25.62,0,0,1-5.37-9.12A35.15,35.15,0,0,1,207,34.84a35.06,35.06,0,0,1,1.85-11.58,25.81,25.81,0,0,1,5.33-9.12,23.55,23.55,0,0,1,8.63-5.91,30.06,30.06,0,0,1,11.43-2.1,29.74,29.74,0,0,1,11.39,2.1,23.64,23.64,0,0,1,8.59,5.91,26,26,0,0,1,5.33,9.12,35.06,35.06,0,0,1,1.84,11.58,35.15,35.15,0,0,1-1.84,11.58Zm-37.94-1h0a12.95,12.95,0,0,0,12.63,8.16q7.05,0,10.74-5t3.7-13.68q0-8.66-3.7-13.68t-10.74-5q-7.12,0-10.83,5t-3.69,13.72A25.44,25.44,0,0,0,221.63,45.39Z"/><path class="cls-5" d="M314.94,24.29h-1.85c0-.84.18-11.74-3.72-17.75a16.65,16.65,0,0,0-4.23-4.43,11.19,11.19,0,0,0-4.38-1.9,21.83,21.83,0,0,0-4.64-.15,19.2,19.2,0,0,0-8.32,2.4c-6.06,3.58-9.36,12.22-8.41,21.83h-2.6c-3.83,0-5.1,1.6-5.1,5.9V57.45c0,4.3,1.27,8.35,5.1,8.35h38.15c3.82,0,6.19-4,6.19-8.35V30.19c0-4.3-2.37-5.9-6.19-5.9ZM300.82,55.68h-8.74q.3-5.19.58-10.36c-.15-.12-3-2.28-2.65-5.61a6.27,6.27,0,0,1,12.39-.25,6.18,6.18,0,0,1-2.6,5.86l1,10.36Zm-16-31.31h0c0-16.2,5.94-19.82,11.82-19.82s11.83,3.62,11.83,19.82Z"/><polygon class="cls-1" points="20.7 89.02 20.7 90.03 14.92 90.03 14.92 79.84 20.52 79.84 20.52 80.83 16.09 80.83 16.09 84.3 19.84 84.3 19.84 85.28 16.09 85.28 16.09 89.02 20.7 89.02"/><path class="cls-1" d="M34.48,89.67a6.4,6.4,0,0,1-2.93.54c-2.94,0-4.63-1.93-4.63-5.21s1.83-5.37,4.79-5.37a7.68,7.68,0,0,1,2.59.43l-.09,1.08a6.28,6.28,0,0,0-2.53-.47c-2.34,0-3.52,1.52-3.52,4.27s1.38,4.22,3.53,4.22a5.86,5.86,0,0,0,2.77-.55Z"/><polygon class="cls-1" points="42.27 79.84 42.27 84.31 47.59 84.31 47.59 79.84 48.74 79.84 48.74 90.03 47.59 90.03 47.59 85.32 42.27 85.32 42.27 90.03 41.12 90.03 41.12 79.84 42.27 79.84"/><path class="cls-1" d="M57,79.84l4.11,5.86c.63.89,1.26,1.88,1.56,2.28h.06c0-.36,0-1.12,0-1.87V79.84h1.13V90H62.77l-4.17-5.9c-.67-.91-1.35-2-1.65-2.44h-.06c0,.45,0,1.21,0,1.87V90H55.8V79.84Z"/><path class="cls-1" d="M70.54,85c0-3.27,1.84-5.37,4.74-5.37s4.78,2,4.78,5.22-1.74,5.37-4.78,5.37-4.74-2-4.74-5.22Zm1.21-.08h0c0,2.7,1.25,4.28,3.53,4.28s3.56-1.6,3.56-4.31-1.24-4.26-3.56-4.26S71.75,82.23,71.75,84.92Z"/><polygon class="cls-1" points="86.76 90.03 86.76 79.84 87.91 79.84 87.91 89 92.1 89 92.1 90.03 86.76 90.03"/><path class="cls-1" d="M97.57,85c0-3.27,1.84-5.37,4.75-5.37s4.77,2,4.77,5.22-1.74,5.37-4.77,5.37-4.75-2-4.75-5.22Zm1.21-.08h0c0,2.7,1.25,4.28,3.54,4.28s3.55-1.6,3.55-4.31-1.24-4.26-3.55-4.26S98.78,82.23,98.78,84.92Z"/><path class="cls-1" d="M118.18,85.1h3.41v4.49a9.73,9.73,0,0,1-3.47.63c-3,0-4.69-1.92-4.69-5.22s1.87-5.37,4.84-5.37a7.47,7.47,0,0,1,2.78.5L121,81.21a7.18,7.18,0,0,0-2.68-.54c-2.39,0-3.63,1.51-3.63,4.27,0,2.91,1.37,4.26,3.58,4.26a6.54,6.54,0,0,0,2.19-.31V86h-2.26Z"/><rect class="cls-6" x="128.52" y="79.84" width="1.17" height="10.18"/><polygon class="cls-1" points="142.58 89.02 142.58 90.03 136.8 90.03 136.8 79.84 142.4 79.84 142.4 80.83 137.97 80.83 137.97 84.3 141.72 84.3 141.72 85.28 137.97 85.28 137.97 89.02 142.58 89.02"/><path class="cls-1" d="M154.08,81.1a5.05,5.05,0,0,0-2.07-.43c-1.24,0-1.86.66-1.86,1.65,0,2.28,4.41,1.71,4.41,4.89,0,2-1.47,3-3.36,3a5.79,5.79,0,0,1-2.4-.43l0-1.15a5.58,5.58,0,0,0,2.35.54c1.3,0,2.12-.63,2.12-1.84,0-2.42-4.4-1.87-4.4-4.88,0-1.51,1.08-2.77,3.13-2.77a6,6,0,0,1,2.06.34Z"/><path class="cls-1" d="M198.78,89.67a6.4,6.4,0,0,1-2.93.54c-2.94,0-4.63-1.93-4.63-5.21s1.83-5.37,4.8-5.37a7.65,7.65,0,0,1,2.58.43l-.09,1.08a6.28,6.28,0,0,0-2.53-.47c-2.33,0-3.52,1.52-3.52,4.27s1.38,4.22,3.54,4.22a5.79,5.79,0,0,0,2.76-.55Z"/><path class="cls-1" d="M205.25,85c0-3.27,1.83-5.37,4.74-5.37s4.78,2,4.78,5.22S213,90.22,210,90.22s-4.74-2-4.74-5.22Zm1.2-.08h0c0,2.7,1.26,4.28,3.54,4.28s3.56-1.6,3.56-4.31-1.24-4.26-3.56-4.26S206.45,82.23,206.45,84.92Z"/><path class="cls-1" d="M223.05,79.84l4.11,5.86c.63.89,1.26,1.88,1.56,2.28h.06c0-.36,0-1.12,0-1.87V79.84h1.13V90h-1.08l-4.16-5.9c-.67-.91-1.35-2-1.66-2.44h-.05c0,.45,0,1.21,0,1.87V90h-1.11V79.84Z"/><path class="cls-1" d="M242.21,81.1a5.05,5.05,0,0,0-2.07-.43c-1.23,0-1.86.66-1.86,1.65,0,2.28,4.42,1.71,4.42,4.89,0,2-1.48,3-3.36,3a5.81,5.81,0,0,1-2.41-.43l0-1.15a5.6,5.6,0,0,0,2.36.54c1.29,0,2.12-.63,2.12-1.84,0-2.42-4.4-1.87-4.4-4.88,0-1.51,1.07-2.77,3.12-2.77a6.1,6.1,0,0,1,2.07.34Z"/><path class="cls-1" d="M257.24,79.84v6.34c0,2.62-1.24,4-3.86,4-1.94,0-3-.78-3.52-2.29a9.27,9.27,0,0,1-.23-2.62V79.84h1.15v6.34c0,2,.75,3,2.67,3s2.63-1,2.63-3v-6.4Z"/><polygon class="cls-1" points="264.66 90.03 264.66 79.84 265.81 79.84 265.81 89 270 89 270 90.03 264.66 90.03"/><polygon class="cls-1" points="278.53 80.87 278.53 90.03 277.36 90.03 277.36 80.87 274.36 80.87 274.36 79.84 281.56 79.84 281.56 80.87 278.53 80.87"/><rect class="cls-6" x="288.01" y="79.84" width="1.17" height="10.18"/><path class="cls-1" d="M297.87,79.84,302,85.7c.63.89,1.26,1.88,1.57,2.28h.05c0-.36,0-1.12,0-1.87V79.84h1.14V90h-1.08l-4.17-5.9c-.66-.91-1.35-2-1.65-2.44h-.06c0,.45,0,1.21,0,1.87V90h-1.11V79.84Z"/><path class="cls-1" d="M316.5,85.1h3.41v4.49a9.73,9.73,0,0,1-3.47.63c-3,0-4.69-1.92-4.69-5.22s1.87-5.37,4.84-5.37a7.47,7.47,0,0,1,2.78.5l-.07,1.08a7.18,7.18,0,0,0-2.68-.54c-2.39,0-3.63,1.51-3.63,4.27,0,2.91,1.37,4.26,3.58,4.26a6.54,6.54,0,0,0,2.19-.31V86H316.5Z"/><path class="cls-1" d="M179,83.2l-2.69,4.08c-1.29,1.94-2.21,2.91-4,2.91a2.78,2.78,0,0,1-2.89-2.77c0-1.34.68-2.32,2.87-3.48,1.48-.9,2.14-1.36,2.14-2.34a1.49,1.49,0,1,0-3,.05c0,.68.49,1.3,1.35,2.12L179.18,90h-1.45L172,84.36a3.66,3.66,0,0,1-1.51-2.68A2.42,2.42,0,0,1,173,79.19a2.35,2.35,0,0,1,2.44,2.4c0,1.1-.66,1.8-2.55,2.92s-2.39,1.85-2.39,2.81a1.93,1.93,0,0,0,1.86,1.92c1.21,0,2-.46,3.33-2.58l2.21-3.46Z"/></g></g></svg>